<?xml version="1.0"?>
<!DOCTYPE svg PUBLIC "-//W3C//DTD SVG 1.1//EN" "http://www.w3.org/Graphics/SVG/1.1/DTD/svg11.dtd">
<svg width="122px" height="30px" viewBox="0 0 122 30" version="1.1" xmlns="http://www.w3.org/2000/svg">
    <title>PayPal</title>
    <g id="Symbols" stroke="none" stroke-width="1" fill="none" fill-rule="evenodd">
        <g id="PayPal-Card-Copy-2" transform="translate(-352.000000, -32.000000)" fill-rule="nonzero">
            <g id="paypal-official-logo" transform="translate(352.000000, 32.000000)">
                <path d="M93.9430051,6.61083744 L87.2570442,6.61083744 C86.799532,6.61083744 86.4098531,6.94336256 86.3375373,7.39512317 L83.6331035,24.5382266 C83.6075818,24.6990241 83.6538326,24.8629273 83.7596451,24.9866644 C83.8654577,25.1104015 84.0201948,25.1815335 84.1830051,25.1812946 L87.6116256,25.1812946 C87.9328876,25.1833639 88.2068701,24.9490706 88.2546799,24.6313793 L89.0209362,19.7724138 C89.0932521,19.3206532 89.4829316,18.98828 89.9404432,18.9881281 L92.0438914,18.9881281 C96.4461086,18.9881281 98.9882759,16.8576355 99.6523643,12.6327093 C99.9528573,10.7846798 99.6523643,9.32729066 98.7989653,8.31763548 C97.8644337,7.18778327 96.1786698,6.61083744 93.9430051,6.61083744 Z M94.7152708,12.8700985 C94.3486698,15.2740394 92.5156648,15.2740394 90.7427588,15.2740394 L89.7331035,15.2740394 L90.4482759,10.7786699 C90.4910279,10.5078086 90.7239651,10.3079662 90.9981774,10.3068965 L91.4609362,10.3068965 C92.6629066,10.3068965 93.8077835,10.3068965 94.3937437,10.9950246 C94.7393106,11.4187192 94.8474874,12.0197044 94.7152708,12.8580788 L94.7152708,12.8700985 Z" id="Shape" fill="#0099D9"></path>
                <path d="M46.2548276,6.61083561 L39.568867,6.61083561 C39.1115589,6.60993605 38.7221478,6.94316987 38.6523645,7.39512317 L35.9479311,24.5382266 C35.9224092,24.6990241 35.96866,24.8629273 36.0744725,24.9866644 C36.1802851,25.1104015 36.3350225,25.1815335 36.4978325,25.1812815 L39.6920689,25.1812815 C40.1432045,25.1736059 40.5235226,24.8427291 40.5935468,24.3969951 L41.3237438,19.7724138 C41.3947091,19.3211198 41.7834069,18.9884963 42.2402463,18.9881281 L44.3436946,18.9881281 C48.7489162,18.9881281 51.2910838,16.8576355 51.9551724,12.6327093 C52.255665,10.7846798 51.9551724,9.32729066 51.1017734,8.31763548 C50.182266,7.18778327 48.4934975,6.61083561 46.2548276,6.61083561 Z M47.0270936,12.8700985 C46.6604926,15.2740394 44.8274877,15.2740394 43.0545812,15.2740394 L42.0479311,15.2740394 L42.7540887,10.7936946 C42.7968405,10.5228332 43.0297778,10.3229908 43.3039902,10.3219212 L43.7667487,10.3219212 C44.9687192,10.3219212 46.1135961,10.3219212 46.7025616,11.0100492 C47.0541379,11.4187192 47.1593104,12.0197044 47.0270936,12.8580788 L47.0270936,12.8700985 Z" id="Shape" fill="#242E7C"></path>
                <path d="M66.2405909,12.7829557 L63.0373399,12.7829557 C62.7693399,12.789799 62.5444002,12.9869372 62.5024631,13.2517241 L62.3612315,14.153202 L62.1238424,13.8226601 C61.4297044,12.8160098 59.8851724,12.4794581 58.3406404,12.4794581 C54.8038424,12.4794581 51.7808867,15.1598522 51.1949261,18.9190148 C50.8944335,20.7970936 51.3241379,22.5880295 52.3968965,23.8380788 C53.3765025,24.9889655 54.7707882,25.4667487 56.4295074,25.4667487 C58.0941233,25.4838764 59.6941206,24.8232674 60.8617734,23.6367487 L60.7205419,24.5382266 C60.6950201,24.6990241 60.7412707,24.8629273 60.8470833,24.9866644 C60.9528959,25.1104015 61.1076333,25.1815335 61.2704434,25.1812808 L64.1521675,25.1812808 C64.6096795,25.1811289 64.9993584,24.8487557 65.0716749,24.3969951 L66.8025126,13.4380295 C66.8312886,13.2734664 66.7849427,13.1046588 66.6761733,12.9778584 C66.5674045,12.8510579 66.4076166,12.7795605 66.2405909,12.7829557 Z M61.7782759,19.0121675 C61.5207619,20.7958539 59.9741703,22.1078791 58.1723645,22.0711823 C57.3599669,22.154516 56.5585608,21.8328906 56.0291642,21.2110597 C55.4997676,20.5892289 55.3101313,19.7467724 55.5220197,18.9580788 C55.7753419,17.1763633 57.3103724,15.8586027 59.1099015,15.8780295 C59.9154385,15.8357937 60.6977804,16.1553418 61.243399,16.7494581 C61.7456121,17.3884104 61.9412384,18.2159758 61.7782759,19.0121675 L61.7782759,19.0121675 Z" id="Shape" fill="#242E7C"></path>
                <path d="M113.925763,12.7829557 L110.725517,12.7829557 C110.451343,12.7812534 110.217334,12.9807368 110.175616,13.2517241 L110.034384,14.153202 L109.809015,13.8226601 C109.114877,12.8160098 107.570345,12.4794581 106.028818,12.4794581 C102.49202,12.4794581 99.4690638,15.1598522 98.8800985,18.9190148 C98.5796061,20.7970936 99.0093106,22.5880295 100.082069,23.8380788 C101.05867,24.9889655 102.452956,25.4667487 104.11468,25.4667487 C105.779295,25.4838764 107.379293,24.8232674 108.546946,23.6367487 L108.40271,24.5382266 C108.378173,24.6993562 108.425194,24.8631687 108.531455,24.9867544 C108.637716,25.1103402 108.792629,25.1813856 108.955616,25.1812808 L111.83734,25.1812808 C112.294648,25.1821821 112.684059,24.8489484 112.753842,24.3969951 L114.487685,13.4260098 C114.513585,13.2631138 114.465811,13.0971276 114.357278,12.9729241 C114.248745,12.8487205 114.090661,12.7791263 113.925763,12.7829557 L113.925763,12.7829557 Z M109.463448,19.0121675 C109.205934,20.7958539 107.659343,22.1078791 105.857537,22.0711823 C105.04464,22.1555956 104.242285,21.8344328 103.712146,21.2124356 C103.182008,20.5904383 102.992036,19.7473312 103.204188,18.9580788 C103.45751,17.1763633 104.99254,15.8586027 106.792069,15.8780295 C107.598636,15.8348815 108.38227,16.1545073 108.928571,16.7494581 C109.432303,17.3876778 109.628096,18.2159512 109.463448,19.0121675 L109.463448,19.0121675 Z" id="Shape" fill="#0099D9"></path>
                <path d="M83.2905417,12.7828409 L80.0722658,12.7828409 C79.7648444,12.7838768 79.4774073,12.9354551 79.3030051,13.1886207 L74.8647292,19.7273399 L72.9836452,13.4440394 C72.865205,13.0465931 72.496835,12.7764551 72.0821673,12.7828409 L68.93,12.7828409 C68.7497232,12.7826183 68.5804764,12.8697216 68.4759751,13.0166207 C68.3714737,13.1635197 68.3446947,13.3519724 68.4041376,13.5221675 L71.9469457,23.9192118 L68.614483,28.6219212 C68.4948144,28.7920675 68.4795362,29.0145947 68.5748285,29.1994993 C68.6701207,29.384404 68.8602154,29.5010908 69.0682266,29.5023645 L72.2834975,29.5023645 C72.5878104,29.5013619 72.872577,29.3522517 73.0467487,29.1027093 L83.7472904,13.6573891 C83.8661434,13.4873843 83.8804592,13.2653488 83.7844227,13.0814887 C83.6883856,12.8976286 83.4979725,12.7825307 83.2905417,12.7828409 L83.2905417,12.7828409 Z" id="Path" fill="#242E7C"></path>
                <path d="M117.699951,7.06758624 L114.956453,24.5262069 C114.930932,24.6870043 114.977182,24.8509076 115.082995,24.9746447 C115.188807,25.0983818 115.343545,25.1695138 115.506355,25.1692618 L118.264877,25.1692618 C118.722389,25.1692618 119.112068,24.8367359 119.184384,24.3849754 L121.888818,7.25689653 C121.91532,7.09563263 121.86952,6.93087644 121.763592,6.80642636 C121.657665,6.68197621 121.502343,6.61044107 121.338916,6.61082975 L118.249852,6.61082975 C117.979984,6.60942744 117.748086,6.80204258 117.699951,7.06758624 L117.699951,7.06758624 Z" id="Path" fill="#0099D9"></path>
                <path d="M22.8374384,7.49428573 C23.1980295,5.2015271 22.8374384,3.63896552 21.593399,2.22364532 C20.2201478,0.667093599 17.7531035,-1.11639901e-07 14.5949261,-1.11639901e-07 L5.42389162,-1.11639901e-07 C4.77784725,-1.11639901e-07 4.22804589,0.47044684 4.12876847,1.10881773 L0.300492611,25.3195074 C0.26733526,25.5457007 0.334135058,25.7751365 0.483529451,25.9481803 C0.632923845,26.121224 0.850157963,26.2207849 1.07876847,26.2209852 L6.74906401,26.2209852 L6.35842364,28.6970443 C6.32677497,28.8958616 6.3837792,29.0985667 6.51441557,29.2517466 C6.64505195,29.4049264 6.83621651,29.4933531 7.03753693,29.4933531 L11.8093596,29.4933531 C12.3666964,29.494694 12.8444653,29.0954972 12.9422167,28.546798 L12.9902956,28.303399 L13.8917734,22.5940394 L13.948867,22.2785222 C14.0374629,21.7214617 14.5176626,21.3113177 15.0817241,21.310936 L15.7968965,21.310936 C20.4184729,21.310936 24.0394088,19.4328571 25.1121675,13.9999508 C25.5418719,11.7192118 25.3074877,9.83512317 24.1385714,8.50394091 C23.7692569,8.09172082 23.3284564,7.74966782 22.8374384,7.49428573 L22.8374384,7.49428573" id="Path" fill="#0099D9"></path>
                <path d="M22.8374384,7.49428573 C23.1980295,5.2015271 22.8374384,3.63896552 21.593399,2.22364532 C20.2201478,0.667093599 17.7531035,-1.11639901e-07 14.5949261,-1.11639901e-07 L5.42389162,-1.11639901e-07 C4.77784725,-0.000264768033 4.22804589,0.47044684 4.12876847,1.10881773 L0.300492611,25.3195074 C0.26733526,25.5457007 0.334135058,25.7751365 0.483529451,25.9481803 C0.632923845,26.121224 0.850157963,26.2209852 1.07876847,26.2209852 L6.74906401,26.2209852 L8.17039407,17.2062069 L8.1253202,17.4886699 C8.2244217,16.851423 8.77253283,16.3810672 9.41743845,16.3798522 L12.1218719,16.3798522 C17.4075369,16.3798522 21.5453202,14.234335 22.7533005,8.02615764 C22.7893596,7.84285713 22.8194088,7.66556648 22.8464532,7.48827588" id="Path" fill="#271D67"></path>
                <path d="M9.69689653,7.5273399 C9.78315355,6.96729787 10.266117,6.55460687 10.8327586,6.55674874 L18.0295566,6.55674874 C18.8232236,6.55187907 19.6160201,6.61015815 20.4004434,6.73103447 C20.6077833,6.7640887 20.8091133,6.80014779 21.0014286,6.84522165 C21.1937438,6.89029558 21.389064,6.93837437 21.5723645,6.99246307 C21.6655172,7.01650246 21.755665,7.0465517 21.8428079,7.07660101 C22.1851439,7.18858821 22.5177876,7.32827847 22.8374384,7.49428573 C23.1980295,5.2015271 22.8374384,3.63896552 21.593399,2.22364532 C20.2201478,0.667093599 17.7531035,-1.11639901e-07 14.5949261,-1.11639901e-07 L5.42389162,-1.11639901e-07 C4.77784725,-0.000264768033 4.22804589,0.47044684 4.12876847,1.10881773 L0.300492611,25.3195074 C0.26733526,25.5457007 0.334135058,25.7751365 0.483529451,25.9481803 C0.632923845,26.121224 0.850157963,26.2209852 1.07876847,26.2209852 L6.74906401,26.2209852 L8.17039407,17.2062069 L9.69689653,7.5273399 Z" id="Path" fill="#242E7C"></path>
            </g>
        </g>
    </g>
</svg>
