<?xml version="1.0" encoding="UTF-8"?>
<svg width="31px" height="36px" viewBox="0 0 31 36" version="1.1" xmlns="http://www.w3.org/2000/svg">
    <title>10B25E14-8956-4C18-9DC7-6E24ABECCD58</title>
    <g id="Page-1" stroke="none" stroke-width="1" fill="none" fill-rule="evenodd">
        <g id="MULTIBANCO" transform="translate(-434.000000, -132.000000)">
            <g id="LOGO_MULTIBANCO_2" transform="translate(434.000000, 132.000000)">
                <path d="M15.0319773,28.9124384 L27.4697307,28.9124384 C30.3097855,28.9124384 30.3381417,25.893863 30.0489088,24.4035616 C29.890854,23.4019726 28.1887444,23.4103562 28.0013471,24.4035616 L28.0013471,25.566411 C28.0013471,26.0975342 27.5663882,26.5324932 27.0350184,26.5324932 L15.0319773,26.5324932 L14.0720595,26.5324932 L3.18896357,26.5324932 C2.65759371,26.5324932 2.22288138,26.0975342 2.22288138,25.566411 L2.22288138,24.4035616 C2.03548412,23.4103562 0.333374531,23.4019726 0.175319736,24.4035616 C-0.113666565,25.893863 -0.0858035513,28.9124384 2.75449782,28.9124384 L14.0720595,28.9124384 L15.0319773,28.9124384 Z" id="bracket_bottom" fill="#1866AB"></path>
                <path d="M6.23860741,1.75202318e-15 L24.4543608,1.75202318e-15 L25.4167444,1.75202318e-15 C26.7642786,1.75202318e-15 27.8664704,1.16654795 27.8664704,2.59249315 L27.8664704,3.83153425 C27.8664704,5.58320548 25.4934293,5.57654795 25.4934293,3.84336986 L25.4934293,3.16652055 C25.4934293,2.736 25.1413197,2.38389041 24.7105526,2.38389041 L5.49321015,2.38389041 C5.0626896,2.38389041 4.71058001,2.736 4.71058001,3.16652055 L4.71058001,3.82956164 C4.71058001,5.57161644 2.44899097,5.55928767 2.44899097,3.86728767 L2.44899097,2.59249315 C2.44899097,1.16654795 3.55142933,1.75202318e-15 4.898717,1.75202318e-15 L6.23860741,1.75202318e-15 Z" id="bracket_top" fill="#1866AB"></path>
                <path d="M27.382517,14.2421671 C28.7108184,14.866989 29.6278321,16.1568247 29.6278321,17.6377562 C29.6278321,19.7257562 27.8049006,21.4340301 25.5763526,21.4340301 L19.3308458,21.4340301 C18.7467088,21.4340301 18.2685992,20.9862493 18.2685992,20.4388521 L18.2685992,8.55613973 C18.2685992,7.98309863 18.7380786,7.51386575 19.312106,7.51386575 L24.514106,7.51386575 C26.7039417,7.51386575 28.4955581,9.30375616 28.4955581,11.491126 C28.4955581,12.5560849 28.0707088,13.5263589 27.382517,14.2421671 M22.7210101,13.2743589 L24.7039691,13.2743589 L24.7039691,13.2524137 C25.606928,13.1138384 26.304243,12.3287425 26.304243,11.3885507 L26.304243,11.3885507 C26.304243,10.3514548 25.4555307,9.50274247 24.4184348,9.50274247 L20.4241608,9.50274247 L20.4241608,19.3632904 L25.4893115,19.3632904 C26.5604348,19.3632904 27.4367636,18.4869616 27.4367636,17.4158384 C27.4367636,16.3447151 26.5604348,15.4683863 25.4893115,15.4683863 L24.7039691,15.4683863 L24.7039691,15.4637014 L22.7210101,15.4637014 C22.1188732,15.4637014 21.6262156,14.9712904 21.6262156,14.3691534 C21.6262156,13.7670164 22.1188732,13.2743589 22.7210101,13.2743589" id="big_b" fill="#373535"></path>
                <path d="M17.276306,20.2471644 C17.3495389,20.9353562 16.850717,21.5527808 16.1625252,21.6257671 C15.4743334,21.699 14.8569088,21.2004247 14.7839225,20.5119863 L13.7569362,11.0622329 L10.1194567,20.3021507 L10.1157581,20.3107808 L10.1155115,20.3117671 L10.1155115,20.3120137 L10.1054019,20.3364247 L10.0972649,20.3556575 L10.0952923,20.3603425 L10.0866622,20.3795753 L10.0812375,20.3911644 L10.0726074,20.4091644 L10.0684156,20.4175479 L10.0587992,20.4365342 L10.0553471,20.4431918 C9.98827864,20.5696849 9.90197727,20.6808904 9.80112796,20.7743425 L9.79742933,20.7775479 L9.7786896,20.7945616 C9.71310056,20.8527534 9.64060741,20.9040411 9.56194987,20.9481781 L9.55652522,20.951137 L9.53285398,20.9639589 L9.53186768,20.9644521 L9.50992248,20.9757945 L9.49981289,20.9809726 L9.48575809,20.9876301 L9.470717,20.9945342 L9.4576485,21.0006986 L9.44211426,21.0073562 L9.42855261,21.0130274 L9.4157307,21.0184521 L9.40414165,21.0228904 L9.39748412,21.0256027 L9.38688138,21.0295479 L9.37036083,21.0357123 L9.36074439,21.0389178 C9.23942933,21.0813288 9.11589508,21.1040137 8.99334713,21.1084521 L8.97855261,21.1089452 L8.96079919,21.1091918 L8.94797727,21.1091918 L8.93490878,21.1091918 L8.9176485,21.1089452 L8.90186768,21.1084521 C8.76501837,21.1035205 8.62644302,21.0756575 8.49156631,21.0228904 L8.47479919,21.0162329 L8.47060741,21.0142603 L8.45384028,21.0076027 L8.43756631,21.0004521 L8.42449782,20.9942877 L8.41044302,20.9878767 L8.39540193,20.980726 L8.38677179,20.9762877 L8.36384028,20.9646986 L8.36162111,20.9632192 L8.34214165,20.9526164 L8.33104576,20.9466986 C8.26225124,20.9079863 8.19838823,20.8633562 8.13945672,20.8137945 L8.13477179,20.8096027 C8.120717,20.7975205 8.10690878,20.7856849 8.09334713,20.7731096 L8.09260741,20.7721233 C8.08200467,20.7622603 8.07140193,20.7521507 8.06129234,20.7420411 C8.05118275,20.7316849 8.04082659,20.7213288 8.03096357,20.710726 L8.03022385,20.7097397 C8.0176485,20.6961781 8.00556631,20.6826164 7.99348412,20.6683151 L7.98929234,20.6636301 C7.9397307,20.6046986 7.89534713,20.5408356 7.8566348,20.4720411 L7.85047042,20.4611918 L7.83962111,20.4414658 L7.8386348,20.439 L7.82679919,20.4165616 L7.82260741,20.4076849 L7.81545672,20.3928904 L7.80879919,20.378589 L7.80288138,20.3655205 L7.7957307,20.3492466 L7.78858001,20.332726 L7.78710056,20.3285342 L7.78019645,20.3117671 L4.13877179,11.0622329 L3.11178549,20.5119863 C3.03855261,21.2004247 2.42137453,21.699 1.73318275,21.6257671 C1.04474439,21.5527808 0.546169051,20.9353562 0.619401928,20.2471644 L1.83008686,9.10615068 L1.83058001,9.10319178 L1.83107316,9.09850685 L1.83058001,9.09826027 C1.84512796,8.96856164 1.87249782,8.83935616 1.91194987,8.71261644 C1.95016905,8.58957534 2.00121015,8.46826027 2.06433344,8.34990411 C2.37353891,7.76921918 2.94238823,7.36187671 3.62121015,7.26793151 L3.6236759,7.26743836 C3.64636083,7.26447945 3.66929234,7.2620137 3.69197727,7.2600411 C3.79825124,7.24894521 3.90403207,7.24573973 4.00808686,7.25067123 L4.01301837,7.25091781 L4.01301837,7.25067123 C4.14838823,7.25708219 4.27512796,7.27409589 4.39200467,7.30121918 C5.03951152,7.45236986 5.58962111,7.90286301 5.84852522,8.56047945 L8.94797727,16.4328904 L12.0471828,8.56047945 C12.3060869,7.90286301 12.8561964,7.45236986 13.5037033,7.30121918 C13.6203334,7.27409589 13.7470732,7.25708219 13.8826896,7.25067123 L13.8826896,7.25091781 L13.8876211,7.25067123 C13.9919225,7.24573973 14.0979499,7.24894521 14.2044704,7.2600411 C14.2269088,7.2620137 14.2493471,7.26447945 14.2720321,7.26743836 L14.2744978,7.26793151 C14.9533197,7.36187671 15.5224156,7.76921918 15.8316211,8.34990411 C15.8944978,8.46826027 15.9457855,8.58957534 15.9837581,8.71261644 C16.0232101,8.83935616 16.05058,8.96831507 16.065128,9.09826027 L16.0646348,9.09850685 L16.065128,9.10319178 L16.0656211,9.10615068 L17.276306,20.2471644 Z" id="big_m" fill="#373535"></path>
                <path d="M28.8133444,32.8942603 L28.8133444,32.8954932 L28.8128512,32.8954932 L28.8121115,32.8954932 L28.8121115,32.8942603 C28.5652896,32.8942603 28.3406595,32.991411 28.1784129,33.1472466 C28.0188786,33.3003699 27.9200019,33.5099589 27.9197554,33.7387808 L27.9212348,33.7387808 L27.9212348,33.739274 L27.9212348,34.3631096 L27.9212348,34.3638493 L27.9197554,34.3638493 C27.9200019,34.5924247 28.0188786,34.8015205 28.1779197,34.9546438 C28.3406595,35.110726 28.5652896,35.2081233 28.8126047,35.2081233 L28.8126047,35.2068904 L28.8128512,35.2068904 L28.8138375,35.2068904 L28.8138375,35.2081233 C29.060906,35.2081233 29.2852896,35.1109726 29.4477828,34.9546438 C29.6070704,34.8017671 29.7061937,34.5924247 29.7061937,34.3633562 L29.7049608,34.3633562 L29.7049608,34.3631096 L29.7049608,33.739274 L29.7049608,33.7385342 L29.7061937,33.7385342 C29.7059471,33.5097123 29.6070704,33.3003699 29.4480293,33.1474932 C29.2852896,32.991411 29.0606595,32.8942603 28.8133444,32.8942603 L28.8133444,32.8942603 Z M28.8128512,32.2255479 L28.8133444,32.2255479 L28.8133444,32.2270274 C29.2404129,32.2270274 29.6292622,32.3954384 29.9110978,32.6659315 C30.1961389,32.9401233 30.37318,33.3196027 30.3734266,33.7385342 L30.3746595,33.7385342 L30.3746595,33.739274 L30.3746595,34.3631096 L30.3746595,34.3633562 L30.3734266,34.3633562 C30.37318,34.7825342 30.1961389,35.1622603 29.9108512,35.4364521 C29.6292622,35.7069452 29.2406595,35.8751096 28.8138375,35.8753562 L28.8138375,35.8768356 L28.8128512,35.8768356 L28.8126047,35.8768356 L28.8126047,35.8753562 C28.3855362,35.8753562 27.9966869,35.7069452 27.7148512,35.4362055 C27.4300567,35.1622603 27.2527691,34.7827808 27.2525225,34.3638493 L27.2512896,34.3638493 L27.2512896,34.3631096 L27.2512896,33.739274 L27.2512896,33.7387808 L27.2525225,33.7387808 C27.2527691,33.3198493 27.4300567,32.9398767 27.7153444,32.6659315 C27.9969334,32.3954384 28.3855362,32.227274 28.8121115,32.2270274 L28.8121115,32.2255479 L28.8128512,32.2255479 Z" id="multibanco_o" fill="#373535"></path>
                <path d="M26.8754101,35.2068658 C27.0603417,35.2068658 27.2102595,35.3567836 27.2102595,35.5417151 C27.2102595,35.7266466 27.0603417,35.876811 26.8754101,35.876811 L25.8886156,35.876811 L25.8881225,35.876811 L25.8881225,35.8753315 C25.5244238,35.8753315 25.1940129,35.7264 24.9548348,35.4872219 C24.716643,35.2490301 24.5686978,34.9191123 24.5682047,34.5556603 L24.5669718,34.5556603 L24.5669718,34.5549205 L24.5669718,33.5474137 L24.5669718,33.5469205 L24.5682047,33.5469205 C24.5684512,33.1832219 24.7168896,32.8525644 24.9563143,32.6133863 C25.1947526,32.3754411 25.5244238,32.2272493 25.8876293,32.2270027 L25.8876293,32.2255233 L25.8886156,32.2255233 L26.8754101,32.2255233 C27.0603417,32.2255233 27.2102595,32.3756877 27.2102595,32.5606192 C27.2102595,32.7455507 27.0603417,32.8954685 26.8754101,32.8954685 L25.8886156,32.8954685 L25.8876293,32.8954685 L25.8876293,32.8942356 C25.7093554,32.8942356 25.5461225,32.9682082 25.4272732,33.0870575 C25.308917,33.2054137 25.2356841,33.3681534 25.2356841,33.5469205 L25.2366704,33.5469205 L25.2366704,33.5474137 L25.2366704,34.5549205 L25.2366704,34.5556603 L25.2356841,34.5556603 C25.2356841,34.7341808 25.3094101,34.8974137 25.428506,35.016263 C25.5466156,35.1343726 25.7093554,35.2080986 25.8881225,35.2080986 L25.8881225,35.2068658 L25.8886156,35.2068658 L26.8754101,35.2068658 Z" id="multibanco_c" fill="#373535"></path>
                <path d="M21.6443636,35.5418137 C21.6443636,35.7267452 21.4944458,35.876663 21.3095143,35.876663 C21.1245828,35.876663 20.9744184,35.7267452 20.9744184,35.5418137 L20.9744184,32.772526 L20.9744184,32.7712932 C20.9744184,32.7520603 20.9758978,32.7328274 20.9791033,32.7145808 C20.9835417,32.6768548 20.9926649,32.6406082 21.0054869,32.6060877 L21.00598,32.6051014 L21.0054869,32.6048548 C21.012391,32.5863616 21.0220074,32.566389 21.0331033,32.544937 L21.033843,32.5439507 L21.0331033,32.5437041 C21.0890759,32.4421151 21.1800622,32.363211 21.2947197,32.3237589 C21.3100074,32.3188274 21.3252951,32.314389 21.3408293,32.3114301 C21.3526649,32.3087178 21.3645006,32.3062521 21.3763362,32.304526 L21.3790485,32.3040329 L21.3790485,32.3030466 C21.4014869,32.2998411 21.4283636,32.2983616 21.4591855,32.2991014 L21.4616512,32.2991014 L21.4675691,32.2991014 L21.4678156,32.2991014 C21.6051581,32.304526 21.7333773,32.3681425 21.8218978,32.4808274 L23.604391,34.7540055 L23.604391,32.5604712 C23.604391,32.3755397 23.7545554,32.2256219 23.9394869,32.2256219 C24.1244184,32.2256219 24.2743362,32.3755397 24.2743362,32.5604712 L24.2743362,35.3176767 C24.2743362,35.4634027 24.2087471,35.595074 24.0995143,35.6843342 C24.0788019,35.7011014 24.0558704,35.7168822 24.0312129,35.7306904 C24.0178978,35.7380877 24.003843,35.7447452 23.9895417,35.7511562 L23.985843,35.7526356 L23.9851033,35.7528822 C23.9762266,35.757074 23.9671033,35.7610192 23.9574869,35.7642247 L23.9565006,35.7647178 L23.9565006,35.7642247 L23.956254,35.7642247 L23.9560074,35.7639781 L23.9537882,35.7647178 C23.8322266,35.8066356 23.7045006,35.7977589 23.5947745,35.7444986 C23.5802266,35.7383342 23.5659252,35.730937 23.5516238,35.7220603 C23.5289389,35.7082521 23.5065006,35.6912384 23.4852951,35.6724986 C23.47198,35.660663 23.4576786,35.6458685 23.4426375,35.6278685 L23.4315417,35.6150466 L23.4308019,35.6143068 L23.4310485,35.6140603 L23.4268567,35.6088822 L21.6443636,33.3361973 L21.6443636,35.5418137 Z" id="multibanco_n" fill="#373535"></path>
                <path d="M20.619054,35.5011041 C20.6414923,35.6845562 20.5108074,35.8517342 20.3271088,35.8741726 C20.1436567,35.896611 19.9769718,35.7656795 19.9545334,35.5822274 L19.8366704,34.6363644 L18.6760403,34.6363644 C18.4911088,34.6363644 18.341191,34.4864466 18.341191,34.3015151 C18.341191,34.1165836 18.4911088,33.9664192 18.6760403,33.9664192 L19.753328,33.9664192 L19.7227526,33.7208301 L19.7222595,33.7181178 C19.7212732,33.7102274 19.7205334,33.702337 19.7202869,33.6946932 C19.7116567,33.638474 19.6990814,33.5812685 19.6815745,33.5235699 C19.6620951,33.4589671 19.638917,33.3995425 19.61278,33.3470219 C19.4798759,33.0814603 19.2394649,32.8955425 18.9354375,32.8955425 L18.9322321,32.8955425 L18.9322321,32.8943096 C18.8742869,32.8943096 18.8175745,32.9014603 18.7638211,32.9145288 C18.7132732,32.926611 18.6632184,32.9455973 18.6141499,32.9705014 C18.3572184,33.1014329 18.1851088,33.3874603 18.1481225,33.7168849 L17.9385334,35.5782822 C17.9183143,35.7619808 17.7528622,35.8943918 17.5694101,35.8741726 C17.3862047,35.8539534 17.2537937,35.6885014 17.2740129,35.5050493 L17.4833554,33.6436521 C17.5452458,33.0940356 17.8502595,32.6080356 18.3108622,32.373789 C18.4013554,32.327926 18.5002321,32.2909397 18.6067526,32.2655425 C18.7098211,32.2403918 18.8185608,32.2273233 18.9322321,32.2270767 L18.9322321,32.2255973 L18.9354375,32.2255973 C19.5161225,32.2255973 19.9671088,32.5648849 20.2092458,33.0486658 C20.2558485,33.1418712 20.2940677,33.2368027 20.3226704,33.3327205 C20.3483143,33.4182822 20.3677937,33.5095151 20.3813554,33.6054329 C20.3838211,33.615789 20.3857937,33.6261452 20.3870266,33.6367479 L20.3875197,33.6394603 L20.619054,35.5011041 Z" id="multibanco_a" fill="#373535"></path>
                <path d="M14.6994211,32.8954438 L14.6994211,34.0301836 L14.6994211,35.2068411 L15.9932019,35.2068411 L15.9939417,35.2068411 L15.9939417,35.208074 C16.1088458,35.208074 16.2141334,35.1602384 16.2913115,35.0830603 C16.3677499,35.0068685 16.4150923,34.9015808 16.4150923,34.7864301 L16.414106,34.7864301 L16.414106,34.785937 L16.414106,34.7849507 L16.4150923,34.7849507 C16.4150923,34.6769507 16.3726814,34.5768411 16.3031471,34.501389 L16.2903252,34.4890603 C16.2131471,34.4116356 16.1078595,34.3638 15.9936951,34.3638 L15.9936951,34.3650329 L15.9932019,34.3650329 L15.670928,34.3650329 L15.6699417,34.3650329 L15.5476403,34.3650329 C15.3629554,34.3650329 15.212791,34.2146219 15.212791,34.0301836 C15.212791,33.8457452 15.3629554,33.6950877 15.5476403,33.6950877 L15.6699417,33.6950877 L15.670928,33.6950877 L15.7000238,33.6950877 C15.796928,33.6876904 15.8854485,33.6440466 15.9522704,33.5777178 L15.9527636,33.578211 L15.9532567,33.5777178 C16.0257499,33.5049781 16.0711197,33.4051151 16.0711197,33.2956356 L16.0698869,33.2956356 L16.0698869,33.295389 L16.0698869,33.2951425 L16.0698869,33.2944027 L16.0711197,33.2944027 C16.0711197,33.1854164 16.0255033,33.0853068 15.9522704,33.012074 C15.8797773,32.9395808 15.7796677,32.894211 15.6704348,32.894211 L15.6704348,32.8954438 L15.6699417,32.8954438 L14.6994211,32.8954438 Z M14.0297225,34.0301836 L14.0297225,32.5751425 L14.0297225,32.5748959 C14.0297225,32.5275534 14.0395855,32.4824301 14.0570923,32.4417452 C14.0750923,32.3981014 14.1017225,32.3588959 14.1347636,32.3265945 L14.1389554,32.3228959 L14.1387088,32.3226493 C14.1954211,32.2684027 14.2708732,32.2321562 14.358654,32.2269781 C14.3653115,32.2264849 14.3719691,32.2259918 14.37838,32.2262384 L14.37838,32.2254986 L14.3793663,32.2254986 L15.6699417,32.2254986 L15.6704348,32.2254986 L15.6704348,32.2269781 C15.9648458,32.2269781 16.23238,32.3473068 16.4256951,32.5408685 C16.618517,32.7336904 16.738106,33.0002384 16.7383526,33.2944027 L16.7398321,33.2944027 L16.7398321,33.2951425 L16.7398321,33.295389 L16.7398321,33.2956356 L16.7383526,33.2956356 C16.7383526,33.5042384 16.6776951,33.6990329 16.5738869,33.8637452 C16.6426814,33.907389 16.7065444,33.9581836 16.7639964,34.015389 C16.7711471,34.0225397 16.7778047,34.0301836 16.7844622,34.0378274 C16.968654,34.2323753 17.0823252,34.4957178 17.0825718,34.7849507 L17.0838047,34.7849507 L17.0838047,34.785937 L17.0838047,34.7864301 L17.0825718,34.7864301 C17.0825718,35.0865123 16.9597773,35.3592247 16.7622704,35.5567315 C16.5659964,35.7530055 16.2940238,35.8750603 15.9939417,35.8753068 L15.9939417,35.8767863 L15.9932019,35.8767863 L14.3645718,35.8767863 C14.1796403,35.8767863 14.0297225,35.7266219 14.0297225,35.5416904 L14.0297225,34.0301836 Z" id="multibanco_b" fill="#373535"></path>
                <path d="M13.748528,35.5418137 C13.748528,35.7267452 13.5986101,35.876663 13.4136786,35.876663 C13.2287471,35.876663 13.0788293,35.7267452 13.0788293,35.5418137 L13.0788293,32.5604712 C13.0788293,32.3755397 13.2287471,32.2256219 13.4136786,32.2256219 C13.5986101,32.2256219 13.748528,32.3755397 13.748528,32.5604712 L13.748528,35.5418137 Z" id="multibanco_i" fill="#373535"></path>
                <path d="M11.6594923,35.5418137 C11.6594923,35.7267452 11.5095745,35.876663 11.324643,35.876663 C11.1397115,35.876663 10.9897937,35.7267452 10.9897937,35.5418137 L10.9897937,32.8955671 L10.03678,32.8955671 C9.8518485,32.8955671 9.7019307,32.7454027 9.7019307,32.5604712 C9.7019307,32.3755397 9.8518485,32.2256219 10.03678,32.2256219 L11.324643,32.2256219 L12.612506,32.2256219 C12.7974375,32.2256219 12.9473554,32.3755397 12.9473554,32.5604712 C12.9473554,32.7454027 12.7974375,32.8955671 12.612506,32.8955671 L11.6594923,32.8955671 L11.6594923,35.5418137 Z" id="multibanco_t" fill="#373535"></path>
                <path d="M10.1962896,35.2068658 C10.3812211,35.2068658 10.5311389,35.3567836 10.5311389,35.5417151 C10.5311389,35.7266466 10.3812211,35.876811 10.1962896,35.876811 L9.27163207,35.876811 L9.27138549,35.876811 L9.27138549,35.8753315 C8.92470056,35.8753315 8.60982385,35.7335507 8.38174165,35.5057151 C8.15489234,35.2783726 8.01385124,34.9644822 8.01360467,34.6180438 L8.01237179,34.6180438 L8.01237179,34.6170575 L8.01237179,32.5606192 C8.01237179,32.3756877 8.1622896,32.2255233 8.34722111,32.2255233 C8.53215261,32.2255233 8.68207042,32.3756877 8.68207042,32.5606192 L8.68207042,34.6170575 L8.68207042,34.6180438 L8.68083754,34.6180438 C8.68083754,34.7793041 8.74765946,34.9267562 8.85541289,35.0345096 C8.96242659,35.1412767 9.10963207,35.2080986 9.27138549,35.2080986 L9.27138549,35.2068658 L9.27163207,35.2068658 L10.1962896,35.2068658 Z" id="multibanco_l" fill="#373535"></path>
                <path d="M7.03114987,32.5605205 C7.03114987,32.375589 7.18106768,32.2256712 7.36599919,32.2256712 C7.5509307,32.2256712 7.70109508,32.375589 7.70109508,32.5605205 L7.70109508,34.371863 L7.70109508,34.3723562 L7.69961563,34.3723562 C7.69961563,34.7863562 7.53021837,35.1626301 7.25775261,35.4350959 C6.98627316,35.7065753 6.61073891,35.8749863 6.19698549,35.8752329 L6.19698549,35.8767123 L6.19624576,35.8767123 L6.19575261,35.8767123 L6.19575261,35.8752329 C5.78175261,35.8752329 5.40547864,35.7060822 5.13301289,35.4333699 C4.86153344,35.1618904 4.69312248,34.7863562 4.6928759,34.3728493 L4.69139645,34.3728493 L4.69139645,34.371863 L4.69139645,32.5605205 C4.69139645,32.375589 4.84156083,32.2256712 5.02649234,32.2256712 C5.21142385,32.2256712 5.36134165,32.375589 5.36134165,32.5605205 L5.36134165,34.371863 L5.36134165,34.3728493 L5.36010878,34.3728493 C5.36010878,34.6014247 5.45454713,34.810274 5.60668412,34.962411 C5.75808138,35.1135616 5.96668412,35.208 6.19575261,35.208 L6.19575261,35.2067671 L6.19624576,35.2067671 L6.19698549,35.2067671 L6.19698549,35.208 C6.42580741,35.208 6.6349033,35.1135616 6.78679371,34.9614247 C6.93819097,34.8100274 7.03238275,34.6014247 7.03238275,34.3723562 L7.03114987,34.3723562 L7.03114987,34.371863 L7.03114987,32.5605205 Z" id="multibanco_u" fill="#373535"></path>
                <path d="M4.56719645,35.5025589 C4.58889508,35.686011 4.45747042,35.8524493 4.27426494,35.8741479 C4.09056631,35.8956 3.92412796,35.7646685 3.90242933,35.5809699 L3.61541563,33.1692164 L2.59212796,35.542011 C2.51914165,35.7119014 2.32237453,35.7903123 2.1527307,35.717326 C2.07062111,35.6823123 2.00996357,35.6179562 1.97741563,35.542011 L1.97741563,35.542011 L0.954127956,33.1692164 L0.666867682,35.5809699 C0.645169051,35.7646685 0.478730695,35.8956 0.29527864,35.8741479 C0.111826586,35.8524493 -0.0193514965,35.686011 0.00234713363,35.5025589 L0.335470421,32.7022027 C0.357169051,32.5192438 0.468621106,32.3690795 0.628155353,32.2867233 C0.649114257,32.2756274 0.671059462,32.266011 0.693251243,32.2576274 C0.70188138,32.2541753 0.710264942,32.2512164 0.719141654,32.2485041 C0.747497819,32.2396274 0.780538914,32.2322301 0.817771791,32.2272986 L0.817771791,32.2275452 L0.82048412,32.2272986 L0.823443024,32.2268055 C0.998264942,32.2046137 1.17062111,32.2610795 1.29119645,32.3745041 C1.31536083,32.3974356 1.33829234,32.4238192 1.35949782,32.4531616 C1.37379919,32.4733808 1.38711426,32.4943397 1.39845672,32.5160384 C1.40560741,32.5281205 1.41177179,32.5402027 1.41719645,32.5532712 L2.2846485,34.5645863 L3.15210056,32.5532712 C3.22385398,32.387326 3.37130604,32.2739014 3.54390878,32.2359288 C3.57694987,32.2287781 3.60999097,32.2238466 3.64229234,32.2223671 C3.66719645,32.2211342 3.69185398,32.2211342 3.71527864,32.2226137 L3.71749782,32.2228603 L3.71749782,32.2228603 C3.7256348,32.2233534 3.73377179,32.2240932 3.74215535,32.2250795 L3.74486768,32.2255726 L3.74462111,32.2265589 L3.74610056,32.2268055 C3.92511426,32.2494904 4.07749782,32.3500932 4.16305946,32.4943397 L4.16281289,32.4943397 C4.18081289,32.5244219 4.19536083,32.5564767 4.20719645,32.5897644 C4.21434713,32.6107233 4.22075809,32.6324219 4.22544302,32.6553534 C4.22889508,32.6696548 4.23160741,32.6842027 4.23333344,32.6992438 L4.23382659,32.7022027 L4.56719645,35.5025589 Z" id="multibanco_m" fill="#373535"></path>
            </g>
        </g>
    </g>
</svg>
