<svg width="34" height="24" viewBox="0 0 34 24" fill="none" xmlns="http://www.w3.org/2000/svg">
<rect x="0.5" y="0.5" width="33" height="23" rx="3.5" fill="white" stroke="#D1D9E0"/>
<path fill-rule="evenodd" clip-rule="evenodd" d="M14.614 18.4482L14.8347 16.9991L14.3431 16.9873H11.9951L13.6268 6.29364C13.6319 6.26126 13.6484 6.2312 13.6724 6.20981C13.6965 6.18843 13.7272 6.1767 13.7594 6.1767H17.7184C19.0328 6.1767 19.9398 6.45933 20.4133 7.01727C20.6353 7.27902 20.7767 7.55261 20.8452 7.85357C20.9169 8.16945 20.9181 8.54679 20.8481 9.00709L20.843 9.04057V9.33555L21.0651 9.46557C21.252 9.56809 21.4006 9.6854 21.5145 9.81969C21.7044 10.0435 21.8272 10.328 21.8791 10.6652C21.9328 11.0119 21.9151 11.4247 21.8272 11.892C21.7259 12.4294 21.5622 12.8975 21.341 13.2805C21.1376 13.6334 20.8785 13.9262 20.5708 14.153C20.277 14.3685 19.928 14.5321 19.5333 14.6368C19.1509 14.7397 18.7149 14.7917 18.2367 14.7917H17.9286C17.7083 14.7917 17.4943 14.8737 17.3263 15.0207C17.1579 15.1707 17.0465 15.3758 17.0123 15.6L16.989 15.7305L16.599 18.2847L16.5814 18.3784C16.5767 18.4081 16.5686 18.4229 16.5568 18.4329C16.5463 18.4421 16.5311 18.4482 16.5164 18.4482H14.614" fill="#28356A"/>
<path fill-rule="evenodd" clip-rule="evenodd" d="M21.2761 9.07465C21.2644 9.15273 21.2508 9.23252 21.2356 9.31451C20.7136 12.0852 18.9273 13.0423 16.646 13.0423H15.4845C15.2055 13.0423 14.9703 13.2516 14.9269 13.5361L14.1638 18.5394C14.1356 18.7262 14.2748 18.8945 14.4571 18.8945H16.5173C16.7612 18.8945 16.9684 18.7113 17.0069 18.4626L17.0271 18.3545L17.415 15.8103L17.4399 15.6707C17.4779 15.4212 17.6856 15.2379 17.9295 15.2379H18.2376C20.2336 15.2379 21.7961 14.4004 22.2528 11.9765C22.4435 10.964 22.3448 10.1186 21.84 9.52396C21.6873 9.3447 21.4977 9.19586 21.2761 9.07465" fill="#298FC2"/>
<path fill-rule="evenodd" clip-rule="evenodd" d="M20.7298 8.84962C20.65 8.82555 20.5677 8.8038 20.4833 8.78413C20.3984 8.76494 20.3115 8.74796 20.222 8.73305C19.9089 8.68075 19.5656 8.65594 19.1981 8.65594H16.0951C16.0186 8.65594 15.946 8.67379 15.8811 8.70604C15.7379 8.77716 15.6316 8.9172 15.6058 9.08864L14.9457 13.4102L14.9268 13.5362C14.9701 13.2517 15.2053 13.0424 15.4843 13.0424H16.6459C18.9271 13.0424 20.7134 12.0847 21.2354 9.31457C21.2511 9.23258 21.2642 9.15279 21.2759 9.07471C21.1438 9.00224 21.0008 8.94029 20.8467 8.8875C20.8087 8.87443 20.7694 8.86184 20.7298 8.84962" fill="#22284F"/>
<path fill-rule="evenodd" clip-rule="evenodd" d="M15.6056 9.08862C15.6314 8.91718 15.7377 8.77715 15.8809 8.70652C15.9462 8.67414 16.0184 8.6563 16.0948 8.6563H19.1979C19.5654 8.6563 19.9086 8.68123 20.2218 8.73353C20.3113 8.74831 20.3982 8.76542 20.4831 8.7846C20.5675 8.80415 20.6498 8.82603 20.7296 8.84998C20.7692 8.8622 20.8085 8.8749 20.8469 8.88749C21.0009 8.94028 21.1441 9.00272 21.2761 9.07469C21.4315 8.05082 21.2748 7.3537 20.7393 6.72245C20.1488 6.0274 19.0831 5.72998 17.7194 5.72998H13.7603C13.4817 5.72998 13.2441 5.9393 13.2011 6.22426L11.5521 17.0279C11.5196 17.2416 11.679 17.4344 11.8876 17.4344H14.3318L15.6056 9.08862" fill="#28356A"/>
</svg>
