<svg width="34" height="24" viewBox="0 0 34 24" fill="none" xmlns="http://www.w3.org/2000/svg">
<rect x="0.5" y="0.5" width="33" height="23" rx="3.5" fill="white" stroke="#D1D9E0"/>
<path fill-rule="evenodd" clip-rule="evenodd" d="M11.8915 5.1812L13.5 5.58333L15.0655 5.06149C15.1853 5.02158 15.3147 5.02158 15.4345 5.06149L17 5.58333L18.5655 5.06149C18.6853 5.02158 18.8147 5.02158 18.9345 5.06149L20.5 5.58333L22.1085 5.1812C22.4211 5.10307 22.7378 5.29309 22.8159 5.60564C22.8275 5.65191 22.8333 5.69943 22.8333 5.74712V18.2529C22.8333 18.575 22.5722 18.8362 22.25 18.8362C22.2023 18.8362 22.1548 18.8304 22.1085 18.8188L20.5 18.4167L18.9345 18.9385C18.8147 18.9784 18.6853 18.9784 18.5655 18.9385L17 18.4167L15.4345 18.9385C15.3147 18.9784 15.1853 18.9784 15.0655 18.9385L13.5 18.4167L11.8915 18.8188C11.5789 18.8969 11.2622 18.7069 11.1841 18.3944C11.1725 18.3481 11.1667 18.3006 11.1667 18.2529V5.74712C11.1667 5.42495 11.4278 5.16379 11.75 5.16379C11.7977 5.16379 11.8452 5.16964 11.8915 5.1812ZM12.3333 6.49424V17.5058L13.217 17.2848C13.4323 17.231 13.6584 17.2397 13.8689 17.3099L15.25 17.7702L16.6311 17.3099C16.8706 17.23 17.1295 17.23 17.3689 17.3099L18.75 17.7702L20.1311 17.3099C20.3416 17.2397 20.5677 17.231 20.783 17.2848L21.6667 17.5058V6.49424L20.783 6.71517C20.5677 6.76898 20.3416 6.7603 20.1311 6.69013L18.75 6.22978L17.3689 6.69013C17.1295 6.76996 16.8706 6.76996 16.6311 6.69013L15.25 6.22978L13.8689 6.69013C13.6584 6.7603 13.4323 6.76898 13.217 6.71517L12.3333 6.49424ZM14.0833 9.08333H19.9167C20.2388 9.08333 20.5 9.3445 20.5 9.66667C20.5 9.98883 20.2388 10.25 19.9167 10.25H14.0833C13.7612 10.25 13.5 9.98883 13.5 9.66667C13.5 9.3445 13.7612 9.08333 14.0833 9.08333ZM14.0833 11.4167H19.9167C20.2388 11.4167 20.5 11.6778 20.5 12C20.5 12.3222 20.2388 12.5833 19.9167 12.5833H14.0833C13.7612 12.5833 13.5 12.3222 13.5 12C13.5 11.6778 13.7612 11.4167 14.0833 11.4167ZM14.0833 13.75H19.9167C20.2388 13.75 20.5 14.0112 20.5 14.3333C20.5 14.6555 20.2388 14.9167 19.9167 14.9167H14.0833C13.7612 14.9167 13.5 14.6555 13.5 14.3333C13.5 14.0112 13.7612 13.75 14.0833 13.75Z" fill="#758CA3"/>
</svg>
