<svg width="34" height="24" viewBox="0 0 34 24" fill="none" xmlns="http://www.w3.org/2000/svg">
<rect x="0.5" y="0.5" width="33" height="23" rx="3.5" fill="white" stroke="#D1D9E0"/>
<path fill-rule="evenodd" clip-rule="evenodd" d="M19.342 12.488H20.4552C20.8082 12.4749 21.0228 12.4469 21.1001 12.4031C21.2056 12.3432 21.2765 12.2235 21.3117 12.0438C21.3342 11.9242 21.3455 11.7464 21.3455 11.5102C21.3455 11.2209 21.3231 11.0064 21.2781 10.8663C21.2139 10.6701 21.0601 10.5506 20.8165 10.5072C20.7683 10.5006 20.653 10.4971 20.4703 10.4971H19.342V12.488ZM17.5564 15.8414V9H20.8831C21.3394 9 21.6876 9.03843 21.9268 9.1152C22.474 9.29199 22.8411 9.65395 23.0291 10.201C23.1262 10.4881 23.1747 10.9203 23.1747 11.4975C23.1747 12.1915 23.1209 12.6902 23.0144 12.9938C22.801 13.5942 22.3618 13.9401 21.6986 14.0297C21.6206 14.0432 21.2887 14.0552 20.703 14.0648L20.4065 14.075H19.342V15.8414H17.5564ZM10.2514 11.1824H8.59024C8.59024 10.9012 8.5582 10.7126 8.49445 10.6166C8.39561 10.4745 8.12275 10.4033 7.67619 10.4033C7.24251 10.4033 6.955 10.4443 6.8147 10.5262C6.67449 10.6083 6.6043 10.787 6.6043 11.0622C6.6043 11.3113 6.66644 11.4753 6.79104 11.5539C6.8803 11.6096 6.99822 11.6424 7.14528 11.6522L7.48028 11.6766C8.19825 11.7258 8.64666 11.7604 8.82551 11.78C9.39329 11.839 9.80491 11.9948 10.0603 12.2471C10.2613 12.4439 10.3811 12.7012 10.4194 13.019C10.4418 13.209 10.4529 13.4241 10.4529 13.663C10.4529 14.2138 10.4019 14.6172 10.2998 14.8728C10.1149 15.3418 9.69939 15.6381 9.05289 15.7625C8.78205 15.8151 8.36768 15.8414 7.81037 15.8414C6.88006 15.8414 6.23171 15.7843 5.86564 15.6695C5.41635 15.5289 5.12014 15.2441 4.97679 14.8151C4.89694 14.5763 4.85742 14.1787 4.85742 13.622H6.51858L6.51874 13.7643C6.51874 14.0613 6.60156 14.2524 6.76681 14.3375C6.88135 14.3961 7.01963 14.4269 7.18222 14.4306H7.7929C8.10456 14.4306 8.30345 14.4142 8.38925 14.3811C8.54194 14.3192 8.64215 14.2195 8.69004 14.0816C8.71548 13.9967 8.72812 13.8868 8.72812 13.7523C8.72812 13.4511 8.62147 13.2679 8.40857 13.2021C8.32897 13.1762 7.95855 13.14 7.2974 13.0941C6.76649 13.055 6.39768 13.0174 6.19115 12.9809C5.64727 12.876 5.28482 12.6603 5.10396 12.3328C4.945 12.0545 4.86547 11.6335 4.86547 11.0702C4.86547 10.6413 4.90845 10.2973 4.99434 10.0386C5.0803 9.77985 5.21882 9.5834 5.40999 9.44902C5.69001 9.24277 6.04836 9.12167 6.48453 9.08549C6.84746 9.05287 7.25007 9.03619 7.69293 9.03619C8.39014 9.03619 8.887 9.07752 9.18321 9.15944C9.90609 9.35971 10.2675 9.9207 10.2675 10.8426C10.2675 10.9182 10.2621 11.0312 10.2514 11.1824ZM25.795 10.3606L26.6316 13.3262H24.9831L25.795 10.3606ZM24.5989 14.659H26.9863L27.3269 15.8414H29.1355L27.1176 9H24.4241L22.4307 15.8414H24.2781L24.5989 14.659Z" fill="#10298E"/>
<path fill-rule="evenodd" clip-rule="evenodd" d="M15.0922 9.96253C15.8286 9.96253 16.4859 10.3124 16.918 10.8603L17.3029 10.0093C16.7009 9.42262 15.8816 9.06091 14.9779 9.06091C13.571 9.06091 12.3674 9.93713 11.8734 11.1775H11.1229L10.6797 12.1572H11.6452C11.638 12.2481 11.6333 12.339 11.6333 12.4318C11.6333 12.5441 11.639 12.6551 11.6498 12.7647H11.1645L10.7214 13.7448H11.8965C12.4045 14.9537 13.593 15.8025 14.9779 15.8025C15.6759 15.8025 16.3235 15.5868 16.8597 15.2185V14.0174C16.4279 14.5244 15.7963 14.8447 15.0922 14.8447C14.2691 14.8447 13.5451 14.4071 13.1235 13.7448H15.5841L16.0272 12.7647H12.7614C12.7446 12.6468 12.7356 12.5263 12.7356 12.4035C12.7356 12.3205 12.7398 12.2383 12.7475 12.1572H16.3018L16.7449 11.1775H13.0549C13.463 10.4512 14.2224 9.96253 15.0922 9.96253" fill="#FFBE00"/>
</svg>
