<svg xmlns="http://www.w3.org/2000/svg" width="32" height="40" viewBox="0 0 48 48">
    <g fill="none" fill-rule="evenodd">
        <path fill="#013088" d="M1.36196923,45.9634625 C0.525969231,45.9634625 -0.113723077,45.2159 0.0165846154,44.3907125 L6.62843077,2.599775 C6.80104615,1.4978375 7.75381538,0.6878375 8.87073846,0.6878375 L24.7445846,0.6878375 C30.2124308,0.6878375 34.4855077,1.8387125 36.8530462,4.5269 C39.0005846,6.9687125 39.6284308,9.6653375 39.0056615,13.6259 C39.8924308,14.0946875 40.6522769,14.670125 41.2648923,15.3636875 C43.2888923,17.66375 43.6848923,20.934125 42.9199692,24.8508125 C41.0888923,34.2265625 34.8239692,37.4665625 26.8210462,37.4665625 L25.5856615,37.4665625 C24.6075077,37.4665625 23.7748923,38.1753125 23.6225846,39.1405625 L23.5227385,39.6805625 L21.9675077,49.5220625 L21.8862769,49.9405625 C21.7322769,50.9024375 20.9013538,51.6111875 19.9232,51.6111875 L11.6630462,51.6111875 C10.9319692,51.6111875 10.3735077,50.9598125 10.4868923,50.2375625 L11.1620698,45.9634625 L1.36196923,45.9634625 Z"/>
        <path fill="#019CDE" d="M39.0039692,13.6255625 C38.9565846,13.927625 38.9024308,14.2364375 38.8415077,14.5536875 C36.7481231,25.271 29.5862769,28.973375 20.4393538,28.973375 L15.7821231,28.973375 C14.6635077,28.973375 13.7208923,29.783375 13.5465846,30.883625 L11.1621231,45.963125 L10.4868923,50.2375625 C10.3735077,50.9598125 10.9319692,51.6111875 11.6630462,51.6111875 L19.9232,51.6111875 C20.9013538,51.6111875 21.7322769,50.9024375 21.8862769,49.9405625 L21.9675077,49.5220625 L23.5227385,39.6805625 L23.6225846,39.1405625 C23.7748923,38.1753125 24.6075077,37.4665625 25.5856615,37.4665625 L26.8210462,37.4665625 C34.8239692,37.4665625 41.0888923,34.2265625 42.9199692,24.8508125 C43.6848923,20.934125 43.2888923,17.66375 41.2648923,15.3636875 C40.6522769,14.670125 39.8924308,14.0946875 39.0039692,13.6255625"/>
        <path fill="#012269" d="M36.8142923,12.7546437 C36.4944462,12.6618312 36.1644462,12.5774562 35.8259846,12.5015187 C35.4858308,12.4272687 35.1372154,12.3614562 34.7784462,12.3040812 C33.5227538,12.1015812 32.1469077,12.0053937 30.6729077,12.0053937 L18.2310615,12.0053937 C17.9247538,12.0053937 17.6336769,12.0745812 17.3730615,12.1994562 C16.7993692,12.4745187 16.3729077,13.0162062 16.2696769,13.6793937 L13.6229077,30.3957687 L13.5467538,30.8834562 C13.7210615,29.7832062 14.6636769,28.9732062 15.7822923,28.9732062 L20.4395231,28.9732062 C29.5864462,28.9732062 36.7482923,25.2691437 38.8416769,14.5535187 C38.9042923,14.2362687 38.9567538,13.9274562 39.0041385,13.6253937 C38.4744462,13.3452687 37.9007538,13.1056437 37.2830615,12.9014562 C37.1307538,12.8508312 36.9733692,12.8018937 36.8142923,12.7546437"/>
    </g>
</svg>
