<svg xmlns="http://www.w3.org/2000/svg" width="24" height="24" viewBox="0 0 24 24">
  <path fill="#758CA3" fill-rule="evenodd" d="M12.0098575,0 C5.37725306,0 0,5.36842105 0,11.9901316 C0,17.0723684 3.16309004,21.4144737 7.63095472,23.1611842 C7.5222235,22.2138158 7.43326159,20.7532895 7.67049334,19.7171053 C7.88795578,18.7796053 9.07411455,13.7565789 9.07411455,13.7565789 C9.07411455,13.7565789 8.71826692,13.0361842 8.71826692,11.9802632 C8.71826692,10.3125 9.68696324,9.06907895 10.8928913,9.06907895 C11.9208956,9.06907895 12.4151284,9.83881579 12.4151284,10.7565789 C12.4151284,11.7828947 11.7627411,13.3223684 11.4167781,14.7532895 C11.1301231,15.9473684 12.0197421,16.9243421 13.1960163,16.9243421 C15.331102,16.9243421 16.971955,14.6743421 16.971955,11.4375 C16.971955,8.56578947 14.9060618,6.5625 11.9505495,6.5625 C8.53045845,6.5625 6.5238732,9.11842105 6.5238732,11.7631579 C6.5238732,12.7894737 6.91925946,13.8947368 7.41349228,14.4967105 C7.51233884,14.6151316 7.5222235,14.7236842 7.49256953,14.8421053 C7.40360762,15.2171053 7.19602984,16.0361842 7.15649121,16.2039474 C7.10706793,16.4210526 6.9785674,16.4703947 6.7512203,16.3618421 C5.24875253,15.6611842 4.30971018,13.4802632 4.30971018,11.7138158 C4.30971018,7.93421053 7.05764465,4.46052632 12.2470892,4.46052632 C16.4085296,4.46052632 19.6506969,7.42105263 19.6506969,11.3881579 C19.6506969,15.5230263 17.0411476,18.8486842 13.4233633,18.8486842 C12.2075506,18.8486842 11.0609305,18.2171053 10.6754289,17.4671053 C10.6754289,17.4671053 10.0724648,19.7565789 9.92419499,20.3190789 C9.65730927,21.3651316 8.9258447,22.6677632 8.43161188,23.4671053 C9.55846271,23.8125 10.7446215,24 11.9900882,24 C18.6226926,24 24,18.6315789 24,12.0098684 C24.019715,5.36842105 18.6424619,0 12.0098575,0 Z"/>
</svg>
