<svg width="40" height="40" viewBox="0 0 40 40" fill="none" xmlns="http://www.w3.org/2000/svg">
    <rect width="40" height="40" rx="4" fill="#0071C0"/>
    <path fill-rule="evenodd" clip-rule="evenodd" d="M15.4378 32.1074L15.8537 29.3822L14.9272 29.3599H10.5033L13.5778 9.24943C13.5874 9.18853 13.6183 9.132 13.6636 9.09179C13.709 9.05157 13.7669 9.02951 13.8275 9.02951H21.2869C23.7635 9.02951 25.4725 9.56104 26.3646 10.6103C26.7829 11.1025 27.0494 11.6171 27.1783 12.1831C27.3135 12.7771 27.3158 13.4867 27.1839 14.3524L27.1743 14.4153V14.9701L27.5927 15.2146C27.9448 15.4074 28.2248 15.628 28.4396 15.8805C28.7973 16.3015 29.0288 16.8365 29.1265 17.4705C29.2277 18.1227 29.1943 18.899 29.0288 19.7777C28.8379 20.7884 28.5293 21.6687 28.1126 22.3889C27.7294 23.0526 27.2411 23.6032 26.6613 24.0297C26.1078 24.4351 25.4502 24.7428 24.7066 24.9397C23.986 25.1332 23.1645 25.2309 22.2635 25.2309H21.683C21.268 25.2309 20.8648 25.3851 20.5482 25.6615C20.2308 25.9437 20.021 26.3293 19.9566 26.751L19.9127 26.9964L19.1779 31.7999L19.1447 31.9762C19.1358 32.032 19.1206 32.0598 19.0983 32.0787C19.0785 32.0959 19.05 32.1074 19.0222 32.1074H15.4378Z" fill="#28356A"/>
    <path fill-rule="evenodd" clip-rule="evenodd" d="M27.9892 14.4793C27.9671 14.6262 27.9415 14.7762 27.913 14.9304C26.9293 20.1409 23.5637 21.9409 19.2654 21.9409H17.0768C16.5511 21.9409 16.1081 22.3346 16.0263 22.8696L14.5884 32.2787C14.5352 32.6301 14.7976 32.9465 15.1411 32.9465H19.0228C19.4824 32.9465 19.8728 32.602 19.9452 32.1344L19.9833 31.931L20.7142 27.1464L20.7612 26.8839C20.8327 26.4147 21.2241 26.07 21.6836 26.07H22.2641C26.0249 26.07 28.9691 24.4949 29.8296 19.9366C30.1889 18.0325 30.0029 16.4425 29.0517 15.3243C28.7639 14.9872 28.4068 14.7073 27.9892 14.4793Z" fill="#99C6E5"/>
    <path fill-rule="evenodd" clip-rule="evenodd" d="M26.9597 14.0562C26.8093 14.0109 26.6543 13.97 26.4952 13.933C26.3353 13.8969 26.1715 13.865 26.0029 13.837C25.4128 13.7386 24.7662 13.692 24.0736 13.692H18.227C18.0829 13.692 17.9461 13.7255 17.8238 13.7862C17.554 13.9199 17.3538 14.1833 17.3052 14.5057L16.0614 22.6328L16.0257 22.8697C16.1075 22.3347 16.5505 21.9411 17.0762 21.9411H19.2648C23.5631 21.9411 26.9287 20.1401 27.9124 14.9306C27.9418 14.7764 27.9665 14.6263 27.9886 14.4795C27.7397 14.3432 27.4702 14.2267 27.18 14.1274C27.1082 14.1028 27.0343 14.0792 26.9597 14.0562Z" fill="#CCE2F2"/>
    <path fill-rule="evenodd" clip-rule="evenodd" d="M17.3056 14.5057C17.3542 14.1833 17.5544 13.9199 17.8242 13.7871C17.9473 13.7262 18.0832 13.6926 18.2274 13.6926H24.074C24.7666 13.6926 25.4132 13.7395 26.0033 13.8379C26.1719 13.8657 26.3356 13.8978 26.4956 13.9339C26.6546 13.9707 26.8097 14.0118 26.96 14.0569C27.0346 14.0798 27.1086 14.1037 27.181 14.1274C27.4712 14.2267 27.741 14.3441 27.9898 14.4795C28.2825 12.554 27.9874 11.243 26.9783 10.0558C25.8656 8.74872 23.8577 8.18939 21.2882 8.18939H13.8286C13.3038 8.18939 12.8561 8.58304 12.775 9.11893L9.66799 29.4362C9.60673 29.8381 9.90722 30.2008 10.3002 30.2008H14.9054L17.3056 14.5057Z" fill="white"/>
</svg>
